<?xml version="1.0" encoding="UTF-8"?> <svg xmlns="http://www.w3.org/2000/svg" xmlns:xlink="http://www.w3.org/1999/xlink" version="1.1" viewBox="0 0 1026.4 175.8"><defs><style> .cls-1 { fill: none; } .cls-2 { fill: #f79857; } .cls-3 { fill: #7d9bbc; } .cls-4 { clip-path: url(#clippath-1); } .cls-5 { clip-path: url(#clippath-4); } .cls-6 { clip-path: url(#clippath-2); } .cls-7 { clip-path: url(#clippath-6); } .cls-8 { fill: #0a2449; } .cls-9 { fill: #fff; } .cls-10 { fill: #b7ede9; } .cls-11 { fill: #ff78ff; } .cls-12 { opacity: .8; } .cls-13 { fill: #69e0e0; } .cls-14 { clip-path: url(#clippath); } </style><clipPath id="clippath"><circle class="cls-1" cx="79.3" cy="86.1" r="70.5"></circle></clipPath><clipPath id="clippath-1"><circle class="cls-1" cx="79.3" cy="86.1" r="70.5"></circle></clipPath><clipPath id="clippath-2"><circle class="cls-1" cx="79.3" cy="86.1" r="70.5"></circle></clipPath><clipPath id="clippath-4"><circle class="cls-1" cx="79.3" cy="86.1" r="70.5"></circle></clipPath><clipPath id="clippath-6"><circle class="cls-1" cx="79.3" cy="86.1" r="70.5"></circle></clipPath></defs><g><g id="Layer_1"><g><g><path class="cls-9" d="M190.4,19.9h3.8l13.3,31.1h-4.9l-3.1-7.7h-14.8l-3.1,7.7h-4.9l13.7-31.1ZM198,39.6l-5.8-14.3h0l-5.9,14.3h11.8Z"></path><path class="cls-9" d="M214.6,19.9h4.2v27.1h14.3v4h-18.5v-31.1Z"></path><path class="cls-9" d="M240.4,19.9h4.2v27.1h14.3v4h-18.5v-31.1Z"></path><path class="cls-9" d="M266.2,19.9h20.1v4h-15.8v9.3h14.7v4h-14.7v10h16.6v4h-20.8v-31.1Z"></path><path class="cls-9" d="M296.1,19.9h5.5l17.1,25.5h0v-25.5h4.2v31.1h-5.4l-17.3-25.5h0v25.5h-4.2v-31.1Z"></path><path class="cls-9" d="M180,69.3h10.8c2.2,0,4.1.3,5.8.7,1.7.5,3.1,1.2,4.3,2,1.2.8,2.2,1.8,3,2.9.8,1.1,1.4,2.2,1.9,3.3.5,1.1.8,2.3,1,3.4.2,1.1.3,2.2.3,3.2,0,2-.4,3.9-1.1,5.8-.7,1.9-1.8,3.5-3.3,5-1.4,1.4-3.2,2.6-5.3,3.5-2.1.9-4.6,1.3-7.4,1.3h-10.1v-31.1ZM184.2,96.4h5.3c1.8,0,3.5-.2,5.1-.7,1.6-.5,3-1.2,4.2-2.2,1.2-1,2.2-2.2,2.9-3.6.7-1.5,1.1-3.1,1.1-5.1s-.2-2.2-.5-3.5c-.3-1.3-.9-2.6-1.8-3.8-.9-1.2-2.1-2.2-3.7-3.1-1.6-.8-3.6-1.3-6.1-1.3h-6.3v23.2Z"></path><path class="cls-9" d="M216.3,69.3h4.2v31.1h-4.2v-31.1Z"></path><path class="cls-9" d="M232.4,93.8c.8,1.1,1.7,2,2.9,2.5,1.2.5,2.4.8,3.7.8s1.4-.1,2.2-.3c.7-.2,1.4-.5,2-1,.6-.4,1.1-1,1.5-1.6.4-.6.6-1.4.6-2.2,0-1.2-.4-2.1-1.1-2.7-.8-.6-1.7-1.2-2.8-1.6-1.1-.4-2.4-.8-3.7-1.2-1.3-.4-2.6-.9-3.7-1.6-1.1-.7-2.1-1.6-2.8-2.8-.8-1.2-1.1-2.8-1.1-4.8s.2-1.9.6-2.9c.4-1,1-2,1.9-2.8.8-.9,1.9-1.6,3.3-2.1,1.3-.6,2.9-.9,4.8-.9s3.3.2,4.9.7c1.6.5,2.9,1.4,4.1,2.9l-3.4,3.1c-.5-.8-1.3-1.5-2.2-2-1-.5-2.1-.7-3.3-.7s-2.1.2-2.9.5c-.8.3-1.4.7-1.9,1.2-.5.5-.8,1-1,1.6-.2.6-.3,1.1-.3,1.5,0,1.3.4,2.3,1.1,3s1.7,1.3,2.8,1.7c1.1.4,2.4.8,3.7,1.2,1.3.4,2.6.8,3.7,1.5,1.1.6,2.1,1.5,2.8,2.5.8,1.1,1.1,2.5,1.1,4.4s-.3,2.8-.9,4c-.6,1.2-1.3,2.2-2.3,3-1,.8-2.1,1.4-3.4,1.9-1.3.4-2.7.7-4.2.7s-3.9-.4-5.7-1.1c-1.8-.7-3.2-1.8-4.3-3.3l3.5-3Z"></path><path class="cls-9" d="M280.5,76c-.9-1.1-2-2-3.3-2.6-1.3-.6-2.7-.9-4.2-.9s-3.3.3-4.8,1c-1.4.7-2.6,1.6-3.6,2.7-1,1.1-1.8,2.5-2.4,4-.6,1.5-.8,3.2-.8,4.9s.3,3.2.8,4.7c.5,1.5,1.3,2.8,2.3,3.9,1,1.1,2.2,2,3.6,2.6s3.1,1,4.9,1,3.4-.4,4.7-1.1c1.3-.7,2.5-1.8,3.4-3.1l3.6,2.7c-.2.3-.6.8-1.2,1.4-.6.6-1.4,1.2-2.3,1.8-1,.6-2.1,1.1-3.5,1.6-1.4.5-2.9.7-4.7.7s-4.7-.5-6.6-1.4c-2-.9-3.7-2.2-5-3.7-1.4-1.5-2.5-3.2-3.2-5.2-.7-1.9-1.1-3.9-1.1-5.8s.4-4.6,1.2-6.7c.8-2,1.9-3.8,3.3-5.3,1.4-1.5,3.1-2.6,5.1-3.4,2-.8,4.2-1.2,6.6-1.2s4.1.4,6,1.2c2,.8,3.6,2,4.9,3.6l-3.5,2.7Z"></path><path class="cls-9" d="M307.1,101.1c-2.4,0-4.6-.4-6.5-1.3-2-.8-3.7-2-5.1-3.4-1.4-1.5-2.5-3.2-3.3-5.2-.8-2-1.2-4.1-1.2-6.5s.4-4.5,1.2-6.5c.8-2,1.9-3.7,3.3-5.2,1.4-1.5,3.1-2.6,5.1-3.4,2-.8,4.2-1.3,6.5-1.3s4.6.4,6.5,1.3c2,.8,3.7,2,5.1,3.4,1.4,1.5,2.5,3.2,3.3,5.2.8,2,1.2,4.1,1.2,6.5s-.4,4.5-1.2,6.5c-.8,2-1.9,3.7-3.3,5.2-1.4,1.5-3.1,2.6-5.1,3.4-2,.8-4.2,1.3-6.5,1.3ZM307.1,97.2c1.8,0,3.4-.3,4.8-1,1.4-.7,2.7-1.5,3.7-2.7,1-1.1,1.8-2.4,2.4-3.9.6-1.5.8-3.1.8-4.8s-.3-3.3-.8-4.8c-.6-1.5-1.3-2.8-2.4-3.9-1-1.1-2.3-2-3.7-2.7-1.4-.7-3-1-4.8-1s-3.4.3-4.8,1c-1.4.7-2.7,1.5-3.7,2.7-1,1.1-1.8,2.4-2.4,3.9-.6,1.5-.8,3.1-.8,4.8s.3,3.3.8,4.8c.6,1.5,1.3,2.8,2.4,3.9,1,1.1,2.3,2,3.7,2.7,1.4.7,3,1,4.8,1Z"></path><path class="cls-9" d="M328.1,69.3h4.9l9.1,25.3h0l9.5-25.3h4.6l-12.2,31.1h-4l-12-31.1Z"></path><path class="cls-9" d="M363.1,69.3h20.1v4h-15.8v9.3h14.7v4h-14.7v10h16.6v4h-20.8v-31.1Z"></path><path class="cls-9" d="M392.9,69.3h10.9c2,0,3.6.3,4.9.8,1.3.5,2.3,1.2,3.1,2.1.7.8,1.3,1.8,1.6,2.8.3,1,.4,2,.4,3s-.2,2-.5,2.9c-.4.9-.9,1.8-1.5,2.5-.7.7-1.5,1.4-2.4,1.9s-2,.8-3.2.9l8.8,14.2h-5.3l-7.9-13.7h-4.7v13.7h-4.2v-31.1ZM397.1,83h5.5c.8,0,1.6,0,2.4-.2s1.5-.4,2.2-.7,1.1-.9,1.5-1.5c.4-.7.6-1.5.6-2.6s-.2-1.9-.6-2.6c-.4-.7-.9-1.2-1.5-1.5-.6-.4-1.3-.6-2.2-.7s-1.6-.2-2.4-.2h-5.5v10Z"></path><path class="cls-9" d="M429.3,87.1l-11.8-17.8h5.4l8.5,13.7,8.7-13.7h5.1l-11.8,17.8v13.3h-4.2v-13.3Z"></path><path class="cls-9" d="M488.7,76c-.9-1.1-2-2-3.3-2.6s-2.7-.9-4.2-.9-3.3.3-4.8,1c-1.4.7-2.6,1.6-3.6,2.7-1,1.1-1.8,2.5-2.4,4-.6,1.5-.8,3.2-.8,4.9s.3,3.2.8,4.7c.5,1.5,1.3,2.8,2.3,3.9,1,1.1,2.2,2,3.6,2.6,1.4.6,3.1,1,4.9,1s3.4-.4,4.7-1.1c1.3-.7,2.5-1.8,3.4-3.1l3.6,2.7c-.2.3-.6.8-1.2,1.4-.6.6-1.4,1.2-2.3,1.8-1,.6-2.1,1.1-3.5,1.6s-2.9.7-4.7.7-4.7-.5-6.6-1.4c-2-.9-3.7-2.2-5-3.7-1.4-1.5-2.5-3.2-3.2-5.2-.7-1.9-1.1-3.9-1.1-5.8s.4-4.6,1.2-6.7c.8-2,1.9-3.8,3.3-5.3,1.4-1.5,3.1-2.6,5.1-3.4,2-.8,4.2-1.2,6.6-1.2s4.1.4,6,1.2c2,.8,3.6,2,4.9,3.6l-3.5,2.7Z"></path><path class="cls-9" d="M501,69.3h20.1v4h-15.8v9.3h14.7v4h-14.7v10h16.6v4h-20.8v-31.1Z"></path><path class="cls-9" d="M530.8,69.3h5.5l17.1,25.5h0v-25.5h4.2v31.1h-5.4l-17.3-25.5h0v25.5h-4.2v-31.1Z"></path><path class="cls-9" d="M575.3,73.2h-10v-4h24.2v4h-10v27.1h-4.2v-27.1Z"></path><path class="cls-9" d="M597,69.3h20.1v4h-15.8v9.3h14.7v4h-14.7v10h16.6v4h-20.8v-31.1Z"></path><path class="cls-9" d="M626.9,69.3h10.9c2,0,3.6.3,4.9.8,1.3.5,2.3,1.2,3.1,2.1.7.8,1.3,1.8,1.6,2.8s.4,2,.4,3-.2,2-.5,2.9c-.4.9-.9,1.8-1.5,2.5s-1.5,1.4-2.4,1.9c-1,.5-2,.8-3.2.9l8.8,14.2h-5.3l-7.9-13.7h-4.7v13.7h-4.2v-31.1ZM631.1,83h5.5c.8,0,1.6,0,2.4-.2s1.5-.4,2.2-.7,1.1-.9,1.5-1.5c.4-.7.6-1.5.6-2.6s-.2-1.9-.6-2.6c-.4-.7-.9-1.2-1.5-1.5-.6-.4-1.3-.6-2.2-.7s-1.6-.2-2.4-.2h-5.5v10Z"></path><path class="cls-9" d="M181.7,132.1h-4.5v-2.9h4.5v-4.6c0-1.3.1-2.4.4-3.4.2-1,.6-1.9,1.2-2.7.6-.8,1.3-1.4,2.3-1.8.9-.4,2.1-.6,3.5-.6s.9,0,1.4.1c.5,0,.9.2,1.2.4l-.5,3.1c-.8-.3-1.6-.4-2.3-.4s-1.6.2-2.1.5-.9.7-1.1,1.3c-.3.5-.4,1.2-.4,2,0,.8,0,1.6,0,2.5v3.9h5v2.9h-5v17.6h-3.4v-17.6Z"></path><path class="cls-9" d="M191.7,139.4c0-1.6.3-3.1.8-4.4.6-1.3,1.3-2.5,2.3-3.4,1-1,2.1-1.7,3.5-2.2,1.3-.5,2.8-.8,4.4-.8s3,.3,4.4.8c1.3.5,2.5,1.3,3.5,2.2s1.7,2.1,2.3,3.4c.6,1.3.8,2.8.8,4.4s-.3,3.1-.8,4.4c-.6,1.3-1.3,2.5-2.3,3.4s-2.1,1.7-3.5,2.2c-1.3.5-2.8.8-4.4.8s-3-.3-4.4-.8c-1.3-.5-2.5-1.3-3.5-2.2-1-1-1.7-2.1-2.3-3.4-.6-1.3-.8-2.8-.8-4.4ZM195.4,139.4c0,1.1.2,2.1.5,3,.3.9.8,1.7,1.5,2.4.6.7,1.4,1.2,2.3,1.6.9.4,1.9.6,3,.6s2.1-.2,3-.6,1.7-.9,2.3-1.6c.6-.7,1.1-1.5,1.5-2.4.3-.9.5-1.9.5-3s-.2-2.1-.5-3c-.3-.9-.8-1.7-1.5-2.4-.6-.7-1.4-1.2-2.3-1.6-.9-.4-1.9-.6-3-.6s-2.1.2-3,.6c-.9.4-1.7.9-2.3,1.6-.6.7-1.1,1.5-1.5,2.4s-.5,1.9-.5,3Z"></path><path class="cls-9" d="M218.1,134c0-.9,0-1.8,0-2.6,0-.8,0-1.6,0-2.2h3.2c0,.6,0,1.1,0,1.7,0,.6,0,1.1,0,1.7h0c.2-.5.6-1,1-1.5s.9-.9,1.5-1.3,1.2-.7,2-.9c.7-.2,1.5-.3,2.4-.3s.5,0,.7,0c.2,0,.5,0,.7.2l-.2,3.5c-.6-.2-1.2-.3-1.8-.3-2.1,0-3.6.7-4.6,2-1,1.4-1.4,3.2-1.4,5.6v10h-3.4v-15.7Z"></path><path class="cls-9" d="M243.7,118.6h4.7l18,25.8h0v-25.8h3.7v31.1h-4.7l-18-25.8h0v25.8h-3.7v-31.1Z"></path><path class="cls-9" d="M294.7,146c-1.2,1.6-2.6,2.7-4,3.3-1.5.6-3.2.9-5.1.9s-3.1-.3-4.3-.9c-1.3-.6-2.4-1.3-3.3-2.3-.9-1-1.6-2.1-2.1-3.4-.5-1.3-.7-2.7-.7-4.2s.3-3,.8-4.4c.5-1.3,1.3-2.5,2.2-3.4.9-1,2-1.7,3.3-2.2,1.3-.5,2.7-.8,4.2-.8s2.8.2,4,.7c1.2.5,2.2,1.2,3.1,2.1.9.9,1.5,2,2,3.4.5,1.3.7,2.8.7,4.5v1.1h-16.6c0,.9.3,1.7.6,2.5.4.8.8,1.5,1.4,2.1.6.6,1.3,1.1,2.1,1.4.8.4,1.7.5,2.6.5,1.5,0,2.8-.3,3.8-.8,1-.5,1.9-1.3,2.8-2.3l2.6,2ZM291.8,137.6c0-1.8-.6-3.2-1.7-4.2s-2.6-1.6-4.5-1.6-3.4.5-4.6,1.6c-1.2,1.1-1.9,2.5-2.1,4.2h12.9Z"></path><path class="cls-9" d="M317.8,144.8c0,.9,0,1.8,0,2.6,0,.8,0,1.6,0,2.2h-3.2c0-.6,0-1.1,0-1.7,0-.6,0-1.1,0-1.7h0c-.2.5-.6,1-1,1.5-.4.5-.9.9-1.5,1.3-.6.4-1.2.7-2,.9-.7.2-1.5.3-2.4.3-1.3,0-2.5-.2-3.5-.6-1-.4-1.8-1-2.4-1.7-.6-.7-1.1-1.6-1.4-2.7s-.5-2.2-.5-3.4v-12.7h3.4v12.3c0,1.7.4,3.1,1.1,4.1.8,1,1.9,1.5,3.6,1.5s2.1-.2,2.9-.6c.8-.4,1.5-.9,2-1.6.5-.7.9-1.5,1.1-2.5.2-1,.4-2,.4-3.2v-10h3.4v15.7Z"></path><path class="cls-9" d="M323.4,134c0-.9,0-1.8,0-2.6,0-.8,0-1.6,0-2.2h3.2c0,.6,0,1.1,0,1.7,0,.6,0,1.1,0,1.7h0c.2-.5.6-1,1-1.5s.9-.9,1.5-1.3,1.2-.7,2-.9c.7-.2,1.5-.3,2.4-.3s.5,0,.7,0c.2,0,.5,0,.7.2l-.2,3.5c-.6-.2-1.2-.3-1.8-.3-2.1,0-3.6.7-4.6,2s-1.4,3.2-1.4,5.6v10h-3.4v-15.7Z"></path><path class="cls-9" d="M336,139.4c0-1.6.3-3.1.8-4.4.6-1.3,1.3-2.5,2.3-3.4,1-1,2.1-1.7,3.5-2.2,1.3-.5,2.8-.8,4.4-.8s3,.3,4.4.8c1.3.5,2.5,1.3,3.5,2.2s1.7,2.1,2.3,3.4c.6,1.3.8,2.8.8,4.4s-.3,3.1-.8,4.4c-.6,1.3-1.3,2.5-2.3,3.4s-2.1,1.7-3.5,2.2c-1.3.5-2.8.8-4.4.8s-3-.3-4.4-.8c-1.3-.5-2.5-1.3-3.5-2.2-1-1-1.7-2.1-2.3-3.4-.6-1.3-.8-2.8-.8-4.4ZM339.7,139.4c0,1.1.2,2.1.5,3,.3.9.8,1.7,1.5,2.4.6.7,1.4,1.2,2.3,1.6.9.4,1.9.6,3,.6s2.1-.2,3-.6c.9-.4,1.7-.9,2.3-1.6.6-.7,1.1-1.5,1.5-2.4s.5-1.9.5-3-.2-2.1-.5-3c-.3-.9-.8-1.7-1.5-2.4-.6-.7-1.4-1.2-2.3-1.6-.9-.4-1.9-.6-3-.6s-2.1.2-3,.6c-.9.4-1.7.9-2.3,1.6-.6.7-1.1,1.5-1.5,2.4-.3.9-.5,1.9-.5,3Z"></path><path class="cls-9" d="M362.2,116.5h3.4v15.6h0c.9-1.1,2-2,3.3-2.6,1.2-.6,2.6-.9,4.1-.9s3.1.3,4.4.8c1.3.5,2.5,1.3,3.4,2.3.9,1,1.7,2.1,2.2,3.4.5,1.3.8,2.8.8,4.3s-.3,3-.8,4.3c-.5,1.3-1.3,2.5-2.2,3.4-.9,1-2,1.7-3.3,2.3-1.3.5-2.6.8-4,.8s-3.5-.4-4.9-1.2c-1.4-.8-2.4-1.8-3.1-3h0v3.6h-3.4v-33.2ZM365.6,139.4c0,1.1.2,2.1.5,3,.3.9.8,1.7,1.5,2.4.6.7,1.4,1.2,2.3,1.6.9.4,1.9.6,3,.6s2.1-.2,3-.6c.9-.4,1.7-.9,2.3-1.6.6-.7,1.1-1.5,1.5-2.4.3-.9.5-1.9.5-3s-.2-2.1-.5-3c-.3-.9-.8-1.7-1.5-2.4-.6-.7-1.4-1.2-2.3-1.6-.9-.4-1.9-.6-3-.6s-2.1.2-3,.6c-.9.4-1.7.9-2.3,1.6-.6.7-1.1,1.5-1.5,2.4-.3.9-.5,1.9-.5,3Z"></path><path class="cls-9" d="M387.9,121.1c0-.7.2-1.3.7-1.8.5-.5,1.1-.7,1.8-.7s1.3.3,1.8.7c.5.5.7,1.1.7,1.8s-.2,1.3-.7,1.8-1.1.7-1.8.7-1.3-.2-1.8-.7-.7-1.1-.7-1.8ZM388.6,129.2h3.4v20.5h-3.4v-20.5Z"></path><path class="cls-9" d="M396.8,139.4c0-1.6.3-3.1.8-4.4.6-1.3,1.3-2.5,2.3-3.4s2.1-1.7,3.5-2.2c1.3-.5,2.8-.8,4.4-.8s3,.3,4.4.8c1.3.5,2.5,1.3,3.5,2.2s1.7,2.1,2.3,3.4c.6,1.3.8,2.8.8,4.4s-.3,3.1-.8,4.4c-.6,1.3-1.3,2.5-2.3,3.4s-2.1,1.7-3.5,2.2c-1.3.5-2.8.8-4.4.8s-3-.3-4.4-.8c-1.3-.5-2.5-1.3-3.5-2.2s-1.7-2.1-2.3-3.4c-.6-1.3-.8-2.8-.8-4.4ZM400.5,139.4c0,1.1.2,2.1.5,3,.3.9.8,1.7,1.5,2.4.6.7,1.4,1.2,2.3,1.6.9.4,1.9.6,3,.6s2.1-.2,3-.6c.9-.4,1.7-.9,2.3-1.6.6-.7,1.1-1.5,1.5-2.4.3-.9.5-1.9.5-3s-.2-2.1-.5-3c-.3-.9-.8-1.7-1.5-2.4-.6-.7-1.4-1.2-2.3-1.6-.9-.4-1.9-.6-3-.6s-2.1.2-3,.6c-.9.4-1.7.9-2.3,1.6-.6.7-1.1,1.5-1.5,2.4-.3.9-.5,1.9-.5,3Z"></path><path class="cls-9" d="M423.5,116.5h3.4v33.2h-3.4v-33.2Z"></path><path class="cls-9" d="M431.7,139.4c0-1.6.3-3.1.8-4.4s1.3-2.5,2.3-3.4c1-1,2.1-1.7,3.5-2.2,1.3-.5,2.8-.8,4.4-.8s3,.3,4.4.8c1.3.5,2.5,1.3,3.5,2.2,1,1,1.7,2.1,2.3,3.4s.8,2.8.8,4.4-.3,3.1-.8,4.4c-.6,1.3-1.3,2.5-2.3,3.4-1,1-2.1,1.7-3.5,2.2-1.3.5-2.8.8-4.4.8s-3-.3-4.4-.8c-1.3-.5-2.5-1.3-3.5-2.2-1-1-1.7-2.1-2.3-3.4-.6-1.3-.8-2.8-.8-4.4ZM435.3,139.4c0,1.1.2,2.1.5,3,.3.9.8,1.7,1.5,2.4.6.7,1.4,1.2,2.3,1.6s1.9.6,3,.6,2.1-.2,3-.6,1.7-.9,2.3-1.6c.6-.7,1.1-1.5,1.5-2.4s.5-1.9.5-3-.2-2.1-.5-3c-.3-.9-.8-1.7-1.5-2.4-.6-.7-1.4-1.2-2.3-1.6-.9-.4-1.9-.6-3-.6s-2.1.2-3,.6c-.9.4-1.7.9-2.3,1.6-.6.7-1.1,1.5-1.5,2.4s-.5,1.9-.5,3Z"></path><path class="cls-9" d="M478.5,148.8c0,3.7-1,6.6-2.9,8.5-1.9,1.9-4.7,2.9-8.3,2.9s-3.8-.3-5.5-.9c-1.6-.6-3.2-1.6-4.6-3l2.5-2.8c1.1,1.2,2.2,2.1,3.4,2.7,1.2.6,2.6.9,4.2.9s2.8-.2,3.8-.7c1-.5,1.8-1.1,2.4-1.8.6-.8,1-1.7,1.2-2.7.2-1,.4-2,.4-3.1v-2.6h0c-.8,1.3-1.9,2.3-3.2,2.9-1.3.6-2.7.9-4,.9s-3.1-.3-4.4-.8c-1.3-.5-2.5-1.3-3.5-2.2-1-.9-1.7-2-2.2-3.3-.5-1.3-.8-2.7-.8-4.2s.3-3.2.8-4.5c.5-1.3,1.3-2.5,2.2-3.4s2.1-1.6,3.4-2.1c1.3-.5,2.8-.7,4.5-.7s1.4,0,2.1.2,1.4.4,2,.7c.7.3,1.3.8,1.8,1.3.5.5,1,1.1,1.3,1.8h0v-3.5h3.4v19.6ZM460.5,139.4c0,1.1.2,2,.6,2.9.4.9.9,1.7,1.6,2.3.7.7,1.4,1.2,2.3,1.6.9.4,1.8.6,2.8.6s2.2-.2,3.1-.6c.9-.4,1.7-1,2.3-1.6.6-.7,1.1-1.5,1.4-2.4s.5-1.8.5-2.8-.2-2.1-.5-3.1c-.4-.9-.9-1.7-1.5-2.4-.6-.7-1.4-1.2-2.3-1.6-.9-.4-1.9-.5-3-.5s-2.1.2-3,.6c-.9.4-1.7.9-2.3,1.6-.6.7-1.1,1.5-1.5,2.4-.4.9-.5,1.9-.5,3Z"></path><path class="cls-9" d="M491.5,154.4c-.4.9-.7,1.7-1.1,2.4-.4.7-.8,1.3-1.3,1.8-.5.5-1.1.9-1.8,1.2-.7.3-1.6.4-2.6.4s-1,0-1.6,0c-.5,0-1-.2-1.5-.4l.4-3c.4.1.7.2,1.1.3.4,0,.8,0,1.3,0,1.1,0,1.9-.3,2.5-.9.5-.6,1-1.4,1.4-2.5l1.4-3.9-8.5-20.7h4l6.4,16.1h0l6.1-16.1h3.7l-9.9,25.2Z"></path><path class="cls-9" d="M515.1,121.1c0-.7.2-1.3.7-1.8.5-.5,1.1-.7,1.8-.7s1.3.3,1.8.7c.5.5.7,1.1.7,1.8s-.2,1.3-.7,1.8c-.5.5-1.1.7-1.8.7s-1.3-.2-1.8-.7c-.5-.5-.7-1.1-.7-1.8ZM515.9,129.2h3.4v20.5h-3.4v-20.5Z"></path><path class="cls-9" d="M525.2,134c0-.9,0-1.8,0-2.6,0-.8,0-1.6,0-2.2h3.2c0,.6,0,1.1,0,1.7,0,.6,0,1.1,0,1.7h0c.2-.5.6-1,1-1.5s.9-.9,1.5-1.3,1.2-.7,2-.9c.7-.2,1.5-.3,2.4-.3,1.3,0,2.5.2,3.5.6,1,.4,1.8,1,2.4,1.7.6.7,1.1,1.6,1.4,2.7.3,1,.5,2.2.5,3.4v12.7h-3.4v-12.3c0-1.7-.4-3.1-1.1-4.1-.8-1-1.9-1.5-3.6-1.5s-2.1.2-2.9.6c-.8.4-1.5.9-2,1.6-.5.7-.9,1.5-1.1,2.5-.2,1-.4,2-.4,3.2v10h-3.4v-15.7Z"></path><path class="cls-9" d="M582.4,125c-.9-1.3-2.1-2.2-3.5-2.8-1.4-.6-2.8-.9-4.3-.9s-3.3.4-4.8,1.1c-1.5.7-2.7,1.6-3.8,2.8-1.1,1.2-1.9,2.6-2.5,4.1-.6,1.6-.9,3.2-.9,4.9s.3,3.5.9,5.1c.6,1.6,1.4,2.9,2.4,4.1,1,1.2,2.3,2.1,3.7,2.7,1.4.7,3.1,1,4.8,1s3.6-.4,5.1-1.1c1.5-.7,2.8-1.8,3.9-3.2l2.8,2.3c-1.4,1.9-3.1,3.2-5.1,4.1-2,.9-4.2,1.3-6.7,1.3s-4.3-.4-6.2-1.2c-1.9-.8-3.6-2-5-3.4-1.4-1.4-2.5-3.2-3.3-5.2-.8-2-1.2-4.2-1.2-6.5s.4-4.4,1.2-6.4c.8-2,1.9-3.7,3.3-5.2,1.4-1.5,3.1-2.6,5-3.5,1.9-.9,4.1-1.3,6.4-1.3s4.1.4,6.1,1.1c1.9.8,3.6,2,4.9,3.7l-3.2,2.3Z"></path><path class="cls-9" d="M590.1,116.5h3.4v15.5h0c.2-.4.6-.8,1-1.2.4-.4.9-.8,1.5-1.1.6-.3,1.2-.6,1.9-.8.7-.2,1.4-.3,2.2-.3,1.3,0,2.5.2,3.5.6,1,.4,1.8,1,2.4,1.7.6.7,1.1,1.6,1.4,2.7.3,1,.5,2.2.5,3.4v12.7h-3.4v-12.3c0-1.7-.4-3.1-1.1-4.1-.8-1-1.9-1.5-3.6-1.5s-2.1.2-2.9.6c-.8.4-1.5.9-2,1.6-.5.7-.9,1.5-1.1,2.5-.2,1-.4,2-.4,3.2v10h-3.4v-33.2Z"></path><path class="cls-9" d="M613.3,131.8c1.1-1.1,2.3-1.9,3.8-2.4,1.5-.5,2.9-.8,4.4-.8,3,0,5.2.7,6.6,2.2,1.3,1.4,2,3.6,2,6.5v8.8c0,.6,0,1.2,0,1.8,0,.6.1,1.2.2,1.7h-3.3c-.1-.5-.2-1-.2-1.6,0-.6,0-1.1,0-1.5h0c-.7,1.1-1.6,1.9-2.7,2.6-1.1.7-2.5,1-4.1,1s-2-.1-3-.4c-.9-.3-1.7-.7-2.4-1.2-.7-.5-1.2-1.1-1.6-1.9-.4-.8-.6-1.6-.6-2.6,0-1.7.4-3,1.3-4,.9-1,2-1.7,3.3-2.2,1.3-.5,2.7-.8,4.2-.9,1.5-.1,2.9-.2,4.1-.2h1.3v-.6c0-1.5-.4-2.6-1.3-3.4-.9-.8-2.1-1.1-3.8-1.1s-2.2.2-3.3.5c-1.1.4-2,.9-2.8,1.7l-2.2-2.2ZM623.3,139.8c-2.2,0-3.9.3-5.2.9-1.3.6-1.9,1.6-1.9,3s.4,2.2,1.3,2.7c.9.5,1.9.8,3.2.8s1.9-.2,2.6-.5c.7-.3,1.4-.8,1.9-1.3.5-.6.9-1.2,1.1-2,.3-.7.4-1.5.4-2.4v-1.3h-3.4Z"></path><path class="cls-9" d="M635.5,134c0-.9,0-1.8,0-2.6,0-.8,0-1.6,0-2.2h3.2c0,.6,0,1.1,0,1.7,0,.6,0,1.1,0,1.7h0c.2-.5.6-1,1-1.5.4-.5.9-.9,1.5-1.3.6-.4,1.2-.7,2-.9.7-.2,1.5-.3,2.4-.3,1.3,0,2.5.2,3.5.6,1,.4,1.8,1,2.4,1.7.6.7,1.1,1.6,1.4,2.7.3,1,.5,2.2.5,3.4v12.7h-3.4v-12.3c0-1.7-.4-3.1-1.1-4.1-.8-1-1.9-1.5-3.6-1.5s-2.1.2-2.9.6c-.8.4-1.5.9-2,1.6-.5.7-.9,1.5-1.1,2.5-.2,1-.4,2-.4,3.2v10h-3.4v-15.7Z"></path><path class="cls-9" d="M679.5,148.8c0,3.7-1,6.6-2.9,8.5-1.9,1.9-4.7,2.9-8.3,2.9s-3.8-.3-5.5-.9c-1.6-.6-3.2-1.6-4.6-3l2.5-2.8c1.1,1.2,2.2,2.1,3.4,2.7s2.6.9,4.2.9,2.8-.2,3.8-.7c1-.5,1.8-1.1,2.4-1.8.6-.8,1-1.7,1.2-2.7.2-1,.4-2,.4-3.1v-2.6h0c-.8,1.3-1.9,2.3-3.2,2.9-1.3.6-2.7.9-4,.9s-3.1-.3-4.4-.8c-1.3-.5-2.5-1.3-3.5-2.2-1-.9-1.7-2-2.2-3.3-.5-1.3-.8-2.7-.8-4.2s.3-3.2.8-4.5c.5-1.3,1.3-2.5,2.2-3.4,1-.9,2.1-1.6,3.4-2.1,1.3-.5,2.8-.7,4.5-.7s1.4,0,2.1.2,1.4.4,2,.7c.7.3,1.3.8,1.8,1.3.5.5,1,1.1,1.3,1.8h0v-3.5h3.4v19.6ZM661.5,139.4c0,1.1.2,2,.6,2.9.4.9.9,1.7,1.6,2.3.7.7,1.4,1.2,2.3,1.6.9.4,1.8.6,2.8.6s2.2-.2,3.1-.6c.9-.4,1.7-1,2.3-1.6.6-.7,1.1-1.5,1.4-2.4.3-.9.5-1.8.5-2.8s-.2-2.1-.5-3.1-.9-1.7-1.5-2.4c-.6-.7-1.4-1.2-2.3-1.6-.9-.4-1.9-.5-3-.5s-2.1.2-3,.6c-.9.4-1.7.9-2.3,1.6-.6.7-1.1,1.5-1.5,2.4-.4.9-.5,1.9-.5,3Z"></path><path class="cls-9" d="M684.5,121.1c0-.7.2-1.3.7-1.8.5-.5,1.1-.7,1.8-.7s1.3.3,1.8.7c.5.5.7,1.1.7,1.8s-.2,1.3-.7,1.8-1.1.7-1.8.7-1.3-.2-1.8-.7c-.5-.5-.7-1.1-.7-1.8ZM685.3,129.2h3.4v20.5h-3.4v-20.5Z"></path><path class="cls-9" d="M694.6,134c0-.9,0-1.8,0-2.6,0-.8,0-1.6,0-2.2h3.2c0,.6,0,1.1,0,1.7,0,.6,0,1.1,0,1.7h0c.2-.5.6-1,1-1.5s.9-.9,1.5-1.3,1.2-.7,2-.9c.7-.2,1.5-.3,2.4-.3,1.3,0,2.5.2,3.5.6,1,.4,1.8,1,2.4,1.7.6.7,1.1,1.6,1.4,2.7.3,1,.5,2.2.5,3.4v12.7h-3.4v-12.3c0-1.7-.4-3.1-1.1-4.1-.8-1-1.9-1.5-3.6-1.5s-2.1.2-2.9.6c-.8.4-1.5.9-2,1.6-.5.7-.9,1.5-1.1,2.5-.2,1-.4,2-.4,3.2v10h-3.4v-15.7Z"></path><path class="cls-9" d="M738.6,148.8c0,3.7-1,6.6-2.9,8.5-1.9,1.9-4.7,2.9-8.3,2.9s-3.8-.3-5.5-.9c-1.6-.6-3.2-1.6-4.6-3l2.5-2.8c1.1,1.2,2.2,2.1,3.4,2.7,1.2.6,2.6.9,4.2.9s2.8-.2,3.8-.7c1-.5,1.8-1.1,2.4-1.8s1-1.7,1.2-2.7c.2-1,.4-2,.4-3.1v-2.6h0c-.8,1.3-1.9,2.3-3.2,2.9-1.3.6-2.7.9-4,.9s-3.1-.3-4.4-.8c-1.3-.5-2.5-1.3-3.5-2.2-1-.9-1.7-2-2.2-3.3-.5-1.3-.8-2.7-.8-4.2s.3-3.2.8-4.5c.5-1.3,1.3-2.5,2.2-3.4s2.1-1.6,3.4-2.1c1.3-.5,2.8-.7,4.5-.7s1.4,0,2.1.2,1.4.4,2,.7c.7.3,1.3.8,1.8,1.3.5.5,1,1.1,1.3,1.8h0v-3.5h3.4v19.6ZM720.7,139.4c0,1.1.2,2,.6,2.9.4.9.9,1.7,1.6,2.3.7.7,1.4,1.2,2.3,1.6.9.4,1.8.6,2.8.6s2.2-.2,3.1-.6c.9-.4,1.7-1,2.3-1.6.6-.7,1.1-1.5,1.4-2.4.3-.9.5-1.8.5-2.8s-.2-2.1-.5-3.1c-.4-.9-.9-1.7-1.5-2.4-.6-.7-1.4-1.2-2.3-1.6-.9-.4-1.9-.5-3-.5s-2.1.2-3,.6c-.9.4-1.7.9-2.3,1.6-.6.7-1.1,1.5-1.5,2.4-.4.9-.5,1.9-.5,3Z"></path><path class="cls-9" d="M756,118.6h19.5v3.4h-15.8v9.7h14.8v3.4h-14.8v11.1h16.6v3.4h-20.3v-31.1Z"></path><path class="cls-9" d="M780.6,134c0-.9,0-1.8,0-2.6,0-.8,0-1.6,0-2.2h3.2c0,.6,0,1.1,0,1.7,0,.6,0,1.1,0,1.7h0c.2-.5.6-1,1-1.5s.9-.9,1.5-1.3,1.2-.7,2-.9c.7-.2,1.5-.3,2.4-.3,1.3,0,2.5.2,3.5.6,1,.4,1.8,1,2.4,1.7.6.7,1.1,1.6,1.4,2.7.3,1,.5,2.2.5,3.4v12.7h-3.4v-12.3c0-1.7-.4-3.1-1.1-4.1-.8-1-1.9-1.5-3.6-1.5s-2.1.2-2.9.6c-.8.4-1.5.9-2,1.6-.5.7-.9,1.5-1.1,2.5-.2,1-.4,2-.4,3.2v10h-3.4v-15.7Z"></path><path class="cls-9" d="M813.4,149.7h-3.8l-8.4-20.5h4l6.4,16.1h0l6.1-16.1h3.7l-8.1,20.5Z"></path><path class="cls-9" d="M823.9,121.1c0-.7.2-1.3.7-1.8.5-.5,1.1-.7,1.8-.7s1.3.3,1.8.7c.5.5.7,1.1.7,1.8s-.2,1.3-.7,1.8c-.5.5-1.1.7-1.8.7s-1.3-.2-1.8-.7-.7-1.1-.7-1.8ZM824.7,129.2h3.4v20.5h-3.4v-20.5Z"></path><path class="cls-9" d="M834,134c0-.9,0-1.8,0-2.6,0-.8,0-1.6,0-2.2h3.2c0,.6,0,1.1,0,1.7,0,.6,0,1.1,0,1.7h0c.2-.5.6-1,1-1.5.4-.5.9-.9,1.5-1.3s1.2-.7,2-.9c.7-.2,1.5-.3,2.4-.3s.5,0,.7,0c.2,0,.5,0,.7.2l-.2,3.5c-.6-.2-1.2-.3-1.8-.3-2.1,0-3.6.7-4.6,2s-1.4,3.2-1.4,5.6v10h-3.4v-15.7Z"></path><path class="cls-9" d="M846.6,139.4c0-1.6.3-3.1.8-4.4.6-1.3,1.3-2.5,2.3-3.4s2.1-1.7,3.5-2.2c1.3-.5,2.8-.8,4.4-.8s3,.3,4.4.8c1.3.5,2.5,1.3,3.5,2.2,1,1,1.7,2.1,2.3,3.4s.8,2.8.8,4.4-.3,3.1-.8,4.4c-.6,1.3-1.3,2.5-2.3,3.4-1,1-2.1,1.7-3.5,2.2-1.3.5-2.8.8-4.4.8s-3-.3-4.4-.8c-1.3-.5-2.5-1.3-3.5-2.2s-1.7-2.1-2.3-3.4c-.6-1.3-.8-2.8-.8-4.4ZM850.3,139.4c0,1.1.2,2.1.5,3s.8,1.7,1.5,2.4c.6.7,1.4,1.2,2.3,1.6s1.9.6,3,.6,2.1-.2,3-.6c.9-.4,1.7-.9,2.3-1.6.6-.7,1.1-1.5,1.5-2.4s.5-1.9.5-3-.2-2.1-.5-3c-.3-.9-.8-1.7-1.5-2.4-.6-.7-1.4-1.2-2.3-1.6-.9-.4-1.9-.6-3-.6s-2.1.2-3,.6c-.9.4-1.7.9-2.3,1.6-.6.7-1.1,1.5-1.5,2.4-.3.9-.5,1.9-.5,3Z"></path><path class="cls-9" d="M873,134c0-.9,0-1.8,0-2.6,0-.8,0-1.6,0-2.2h3.2c0,.6,0,1.1,0,1.7,0,.6,0,1.1,0,1.7h0c.2-.5.6-1,1-1.5s.9-.9,1.5-1.3c.6-.4,1.2-.7,2-.9.7-.2,1.5-.3,2.4-.3,1.3,0,2.5.2,3.5.6,1,.4,1.8,1,2.4,1.7.6.7,1.1,1.6,1.4,2.7.3,1,.5,2.2.5,3.4v12.7h-3.4v-12.3c0-1.7-.4-3.1-1.1-4.1-.8-1-1.9-1.5-3.6-1.5s-2.1.2-2.9.6c-.8.4-1.5.9-2,1.6-.5.7-.9,1.5-1.1,2.5-.2,1-.4,2-.4,3.2v10h-3.4v-15.7Z"></path><path class="cls-9" d="M896.5,134c0-.9,0-1.8,0-2.6,0-.8,0-1.6,0-2.2h3.2c0,.6,0,1.1,0,1.7,0,.6,0,1.1,0,1.7h0c.2-.5.6-1,1-1.5.4-.5.9-.9,1.5-1.3s1.2-.7,2-.9c.7-.2,1.5-.3,2.4-.3s2,.1,2.8.4,1.4.6,1.9,1c.5.4.9.8,1.2,1.3.3.5.5.9.7,1.2.8-1.2,1.6-2.2,2.6-2.9,1-.7,2.3-1,3.9-1s2.7.2,3.7.6c1,.4,1.8,1,2.4,1.7.6.7,1.1,1.7,1.3,2.7.3,1.1.4,2.3.4,3.6v12.5h-3.4v-12.3c0-.7,0-1.4-.2-2.1-.1-.7-.4-1.3-.8-1.8-.4-.5-.9-1-1.5-1.3-.6-.3-1.5-.5-2.5-.5s-1.4.1-2.1.4c-.6.3-1.2.7-1.7,1.2-.5.5-.9,1.2-1.1,1.9-.3.7-.4,1.6-.4,2.5v11.9h-3.4v-11.6c0-2.3-.3-3.9-.9-4.9s-1.6-1.4-3-1.4-2.1.2-2.9.6c-.8.4-1.5.9-2,1.6-.5.7-.9,1.5-1.1,2.5-.2,1-.4,2-.4,3.2v10h-3.4v-15.7Z"></path><path class="cls-9" d="M951.4,146c-1.2,1.6-2.6,2.7-4,3.3-1.5.6-3.2.9-5.1.9s-3.1-.3-4.3-.9c-1.3-.6-2.4-1.3-3.3-2.3-.9-1-1.6-2.1-2.1-3.4-.5-1.3-.7-2.7-.7-4.2s.3-3,.8-4.4c.5-1.3,1.3-2.5,2.2-3.4.9-1,2-1.7,3.3-2.2,1.3-.5,2.7-.8,4.2-.8s2.8.2,4,.7c1.2.5,2.2,1.2,3.1,2.1.9.9,1.5,2,2,3.4.5,1.3.7,2.8.7,4.5v1.1h-16.6c0,.9.3,1.7.6,2.5.4.8.8,1.5,1.4,2.1.6.6,1.3,1.1,2.1,1.4.8.4,1.7.5,2.6.5,1.5,0,2.8-.3,3.8-.8,1-.5,1.9-1.3,2.8-2.3l2.6,2ZM948.4,137.6c0-1.8-.6-3.2-1.7-4.2-1.1-1.1-2.6-1.6-4.5-1.6s-3.4.5-4.6,1.6c-1.2,1.1-1.9,2.5-2.1,4.2h12.9Z"></path><path class="cls-9" d="M956.5,134c0-.9,0-1.8,0-2.6,0-.8,0-1.6,0-2.2h3.2c0,.6,0,1.1,0,1.7,0,.6,0,1.1,0,1.7h0c.2-.5.6-1,1-1.5s.9-.9,1.5-1.3,1.2-.7,2-.9c.7-.2,1.5-.3,2.4-.3,1.3,0,2.5.2,3.5.6,1,.4,1.8,1,2.4,1.7.6.7,1.1,1.6,1.4,2.7.3,1,.5,2.2.5,3.4v12.7h-3.4v-12.3c0-1.7-.4-3.1-1.1-4.1-.8-1-1.9-1.5-3.6-1.5s-2.1.2-2.9.6c-.8.4-1.5.9-2,1.6-.5.7-.9,1.5-1.1,2.5-.2,1-.4,2-.4,3.2v10h-3.4v-15.7Z"></path><path class="cls-9" d="M991.3,132.1h-6.1v10.3c0,.7,0,1.3,0,1.9,0,.6.1,1.1.4,1.5.2.4.5.8.9,1,.4.2,1,.4,1.8.4s1,0,1.5-.2c.5-.1,1-.3,1.5-.5v3.1c-.5.3-1.1.5-1.8.6-.7.1-1.4.2-2,.2-1.2,0-2.2-.2-2.9-.5-.7-.3-1.3-.8-1.7-1.4-.4-.6-.7-1.3-.8-2.2-.1-.9-.2-1.8-.2-2.9v-11.3h-4.5v-2.9h4.5v-5.8h3.4v5.8h6.1v2.9Z"></path><path class="cls-9" d="M995.1,144.3c.7.9,1.4,1.5,2.2,2,.8.5,1.8.7,3.1.7s1.1,0,1.6-.2c.5-.1,1-.3,1.5-.6s.8-.6,1.1-1c.3-.4.4-.9.4-1.4s-.1-1-.4-1.4c-.3-.4-.6-.7-1-.9-.4-.2-.9-.4-1.4-.6-.5-.1-1.1-.3-1.6-.4-1-.2-1.9-.4-2.8-.7-.9-.3-1.6-.6-2.3-1-.7-.4-1.2-1-1.6-1.6-.4-.7-.6-1.5-.6-2.6s.2-1.9.7-2.6c.4-.8,1-1.4,1.8-1.9.7-.5,1.6-.9,2.5-1.1.9-.3,1.8-.4,2.8-.4,1.5,0,2.8.3,4.1.9,1.2.6,2.2,1.5,2.9,2.9l-2.9,1.9c-.4-.7-1-1.3-1.7-1.8-.7-.5-1.6-.7-2.6-.7s-.9,0-1.4.2c-.5.1-.9.3-1.3.5-.4.2-.7.5-.9.9-.3.4-.4.8-.4,1.3s.1.8.4,1.1c.3.3.7.6,1.1.8.5.2,1,.4,1.7.6.6.2,1.3.3,2,.4.9.2,1.8.4,2.6.7.8.3,1.5.7,2.2,1.1.6.5,1.1,1.1,1.4,1.8.4.7.5,1.6.5,2.6s-.2,2.2-.7,3c-.5.8-1.1,1.5-1.9,2s-1.7.9-2.6,1.1c-1,.2-2,.4-3,.4-1.8,0-3.3-.3-4.5-.8-1.3-.5-2.4-1.5-3.4-3l2.7-2.1Z"></path></g><g class="cls-14"><circle class="cls-2" cx="79.3" cy="86.1" r="70.5"></circle><g class="cls-4"><polygon class="cls-13" points="153.9 87.7 143.5 83.5 133.4 83.9 100.9 96 82.8 100.5 90.8 108.1 113.3 113.7 147.3 111 153.9 87.7"></polygon><polygon class="cls-8" points="145.3 134.1 149.2 110.7 106.3 112.6 90.2 109.8 70.1 94.9 44.2 79 39.6 78 21.9 73.9 -1.2 71.7 7.4 133.5 45.9 154.1 82.9 167 145.3 134.1"></polygon></g><g class="cls-6"><path class="cls-13" d="M150.3,68.4s-15.5-14-25.6-13c-10,1-33.6,14.5-46.6,21-13,6.5-26,6.3-26,6.3l27,18.2,10.5-1.9,21-5.8,10-7.3,11.5-3.6,21,3.6-3-17.5Z"></path></g><g class="cls-5"><circle class="cls-11" cx="151.7" cy="28.3" r="9.5"></circle><circle class="cls-11" cx="138.3" cy="35.5" r="6.5"></circle><g class="cls-12"><path class="cls-9" d="M85,13c0-2.8-2.3-5.1-5.1-5.1s-5.1,2.3-5.1,5.1"></path></g></g><g class="cls-7"><circle class="cls-10" cx="124.9" cy="68.5" r="5"></circle><circle class="cls-10" cx="101.6" cy="83.6" r="5"></circle><circle class="cls-10" cx="130.9" cy="95.8" r="5"></circle><circle class="cls-10" cx="109.8" cy="71.5" r="3.9"></circle><circle class="cls-10" cx="87.2" cy="81.6" r="3.9"></circle><circle class="cls-10" cx="106.2" cy="103.7" r="3.1"></circle><circle class="cls-10" cx="75.7" cy="88.2" r="3.1"></circle><circle class="cls-10" cx="138.4" cy="74.1" r="3.1"></circle><circle class="cls-10" cx="143.3" cy="94.5" r="3.1"></circle><circle class="cls-10" cx="119" cy="103.3" r="4.4"></circle></g><path class="cls-9" d="M76.1,111.4s0,0,0,0c.6,1.8,1.5,3.6,2.5,5.5,7.2,13.3,19.8,20.4,37.4,21.2,1.4,0,2.9,0,4.3,0,7.8.2,14.4-2.1,14.4-2.1,0,0,6-4.4,3-4.2-15.2,1.1-17.5,1-17.5,1-18,.2-30.1-5.8-36.9-18.5-1.9-3.5-2.9-6.8-3.5-9.4,0-.2.1-.3.3-.2,10.3,6.4,20.8,11,33.1,11.5,1.2,0,2.5,0,3.7,0,22.6-.5,35.3-6.1,36.9-6.8,0,0,.1-.1,0-.2l-2.2-4.5c0,0-.1-.1-.2,0-1.5.7-13.6,5.9-34.6,6.3-11.5.2-21.2-3.3-30.9-9-.2,0,0-.3,0-.3,10.3-.6,20.6-4.5,26-7.9,5.3-3.2,12.6-7.1,21.9-7.9,7.5-.7,13.7,2.3,14.8,2.8s2.4,1.5,2.5,1.4l-1-3.7,1.2-2.2c0,0,0-.2,0-.2-1.2-.6-8.6-4.3-17.8-3.5-10.3.9-18.3,5.1-24.1,8.7-5.7,3.5-21.4,9.6-33.4,6.2,0,0,0,0,0,0-3.6-2.5-7.2-5.2-11-8-1.7-1.2-3.4-2.5-5.2-3.8,0,0,.1,0,.2,0,1.3-.8,4.7-1.7,6.6-2.2,11.4-2.1,22.7-6.7,33.7-13.8,17.6-11.3,25.7-9.8,32.4-7.3,10.8,4,20.4,13.2,21.5,14.3s.2,0,.2,0l3.5-3.5c0,0,0-.2,0-.2-1.3-1.3-11.4-11.1-23.5-15.6-7.7-2.8-17.5-4.8-37.2,7.8-11.1,7.1-22.3,11.5-33.6,13.3h.2c0,0-.2,0-.6,0-2,.3-4,.5-6,.7-3,0-6.9-.2-11.2-1.5,0,0,0,0,0,0-22.1-8.9-50.3-5.8-53.1-5.5,0,0-.2,0-.1.2l.6,4.9c0,0,0,.2.2.2,1.4-.2,10.7-1.2,22.3-.5,2.2.1,4.6.3,7.1.6,0,0,0,0,0,0,7.2,1.7,11.3,5.1,13.7,9.1,2.9,4.8,3.5,12.7,3.6,17.2,0,1,0,2,0,3,0,.2,0,.2,0,.2h0c0,18.4,3.3,42.6,43.9,48.7,9.4,1.4,16.8,1.5,16.8,1.5l7.7-3.3-23.7-3.5c-40.1-6.1-39.6-29.8-39.3-48.8.2-9.1-2.2-15.6-5-20,0-.1,0-.3.2-.3,4.6,1.6,9.1,3.7,12.9,6.4,2.7,1.9,5.3,3.9,7.9,5.8,0,0,10.4,7.7,14.7,19.6Z"></path><g><circle class="cls-3" cx="63.2" cy="105.6" r="5"></circle><circle class="cls-3" cx="20.5" cy="103" r="5"></circle><circle class="cls-3" cx="106.6" cy="123" r="5"></circle><circle class="cls-3" cx="77" cy="136.2" r="5"></circle><circle class="cls-3" cx="93.4" cy="143.1" r="3.9"></circle><circle class="cls-3" cx="130.5" cy="121.7" r="3.9"></circle><circle class="cls-3" cx="28.7" cy="88.9" r="3.9"></circle><circle class="cls-3" cx="91.8" cy="117.8" r="3.1"></circle><circle class="cls-3" cx="118.7" cy="127.3" r="3.1"></circle><circle class="cls-3" cx="71.7" cy="120.4" r="3.1"></circle><circle class="cls-3" cx="55" cy="115.5" r="3.1"></circle><circle class="cls-3" cx="32.8" cy="109.9" r="3.1"></circle><circle class="cls-3" cx="40.5" cy="136.8" r="3.1"></circle><circle class="cls-3" cx="51.7" cy="96.4" r="3.1"></circle><circle class="cls-3" cx="108.2" cy="143.4" r="3.1"></circle><circle class="cls-3" cx="15.6" cy="82.6" r="3.1"></circle><circle class="cls-3" cx="62.2" cy="129.9" r="3.9"></circle><circle class="cls-3" cx="30.7" cy="126" r="3.9"></circle></g></g><path class="cls-9" d="M79.3,15.6c38.9,0,70.5,31.6,70.5,70.5s-31.6,70.5-70.5,70.5S8.8,125,8.8,86.1,40.3,15.6,79.3,15.6M79.3,10.6C37.6,10.6,3.8,44.4,3.8,86.1s33.9,75.5,75.5,75.5,75.5-33.9,75.5-75.5S120.9,10.6,79.3,10.6h0Z"></path></g></g></g></svg> 